<svg xmlns="http://www.w3.org/2000/svg" version="1.1" xmlns:xlink="http://www.w3.org/1999/xlink" xmlns:svgjs="http://svgjs.dev/svgjs" width="100%" height="100%" viewBox="0 0 1000 600"><rect width="1000" height="600" x="0" y="0" fill="#0389ff"/><g><rect width="333.3333333333333" height="333.3333333333333" y="187.0166361709125" fill="#0e0e0e" transform="matrix(0.7585206723426499,0,0,0.7585206723426499,0,31.723872861030628)" x="164.7944183349609"/><path d="M263.81493248105573 428.6833052890372L234.42272876372607 428.6833052890372Q227.39365399943966 428.6833052890372 223.89071575057085 424.73959997574116Q220.38777750170206 420.819092928994 220.38777750170206 414.97312975869636L220.38777750170206 414.97312975869636L220.38777750170206 404.46431501208997Q220.38777750170206 399.940653035074 221.31570816365405 396.60010265204676Q222.22044055905727 393.25955226901954 223.56594001888763 390.59175161590747Q224.88824121216925 387.9239509627955 226.55851640368286 385.8361069734035Q228.22879159519644 383.7482629840115 229.73667892086846 381.91559992665634L229.73667892086846 381.91559992665634Q232.59006570637086 378.5750495436291 233.65718596761567 376.13923155600514Q234.74750449540926 373.7266118349298 234.74750449540926 371.0588111818179L234.74750449540926 371.0588111818179Q234.74750449540926 364.7024861474466 228.90154132511165 361.7795045622979Q223.05557815481404 358.8565229771491 211.71162581245082 358.8565229771491L211.71162581245082 358.8565229771491L198.6742000120252 358.8565229771491L198.6742000120252 348.51009609638425L211.71162581245082 348.51009609638425Q223.05557815481404 348.51009609638425 228.90154132511165 345.5871145112354Q234.74750449540926 342.6641329260866 234.74750449540926 336.30780789171547L234.74750449540926 336.30780789171547Q234.74750449540926 333.6400072386034 233.65718596761567 331.2041892509794Q232.59006570637086 328.7915695299042 229.73667892086846 325.451019146877L229.73667892086846 325.451019146877Q228.22879159519644 323.61835608952174 226.55851640368286 321.53051210012984Q224.88824121216925 319.4426681107378 223.56594001888763 316.8444622572722Q222.22044055905727 314.26945467035534 221.31570816365405 310.83611122113297Q220.38777750170206 307.40276777191053 220.38777750170206 302.9023040614433L220.38777750170206 302.9023040614433L220.38777750170206 292.3702910482881Q220.38777750170206 286.52432787799046 223.89071575057085 282.6038208312433Q227.39365399943966 278.6833137844961 234.42272876372607 278.6833137844961L234.42272876372607 278.6833137844961L263.81493248105573 278.6833137844961L263.81493248105573 289.0297406652609L231.91731597645565 289.0297406652609L231.91731597645565 301.9047785998449Q231.91731597645565 308.74826723174095 233.91236689965245 312.4135933464514Q235.93061608939806 316.1021177277106 238.59841674251007 319.60505597657937L238.59841674251007 319.60505597657937Q241.42860526146367 323.2703820912898 243.9340180487341 327.2140874045858Q246.4394308360045 331.134594451333 246.4394308360045 336.470195757557L246.4394308360045 336.470195757557Q246.4394308360045 343.4992705218434 241.5213983276589 347.8373463664691Q236.58016755276446 352.17542221109466 228.06640372935485 353.33533553853465L228.06640372935485 353.33533553853465L228.06640372935485 354.0080852684498Q236.58016755276446 355.1911968624387 241.5213983276589 359.52927270706425Q246.4394308360045 363.8673485516898 246.4394308360045 370.87322504942745L246.4394308360045 370.87322504942745Q246.4394308360045 376.23202462220024 243.9340180487341 380.1525316689475Q241.42860526146367 384.0730387156947 238.59841674251007 387.76156309695386L238.59841674251007 387.76156309695386Q235.93061608939806 391.26450134582274 233.91236689965245 394.92982746053315Q231.91731597645565 398.61835184179233 231.91731597645565 405.4618404736883L231.91731597645565 405.4618404736883L231.91731597645565 418.3136801417236L263.81493248105573 418.3136801417236L263.81493248105573 428.6833052890372ZM373.54273325687984 393.4219401348611L373.54273325687984 405.62422833952996L289.3794222178334 405.62422833952996L289.3794222178334 393.0971644031779L355.35529228262067 301.2320288699297L292.209610736787 301.2320288699297L292.209610736787 289.0297406652609L370.71254473792635 289.0297406652609L370.71254473792635 301.55680460161295L304.5742868072974 393.4219401348611L373.54273325687984 393.4219401348611ZM399.1072229936575 278.6833137844961L428.4994267109871 278.6833137844961Q435.5285014752735 278.6833137844961 439.0314397241424 282.6038208312433Q442.53437797301126 286.52432787799046 442.53437797301126 292.3702910482881L442.53437797301126 292.3702910482881L442.53437797301126 302.9023040614433Q442.53437797301126 307.40276777191053 441.60644731105924 310.83611122113297Q440.701714915656 314.26945467035534 439.3562154558256 316.8444622572722Q438.03391426254393 319.4426681107378 436.36363907103043 321.53051210012984Q434.6933638795168 323.61835608952174 433.18547655384475 325.451019146877L433.18547655384475 325.451019146877Q430.33208976834237 328.7915695299042 429.2649695070976 331.2041892509794Q428.1746509793039 333.6400072386034 428.1746509793039 336.30780789171547L428.1746509793039 336.30780789171547Q428.1746509793039 342.6641329260866 434.02061414960156 345.5871145112354Q439.8665773198992 348.51009609638425 451.2105296622624 348.51009609638425L451.2105296622624 348.51009609638425L464.2479554626881 348.51009609638425L464.2479554626881 358.8565229771491L451.2105296622624 358.8565229771491Q439.8665773198992 358.8565229771491 434.02061414960156 361.7795045622979Q428.1746509793039 364.7024861474466 428.1746509793039 371.0588111818179L428.1746509793039 371.0588111818179Q428.1746509793039 373.7266118349298 429.2649695070976 376.13923155600514Q430.33208976834237 378.5750495436291 433.18547655384475 381.91559992665634L433.18547655384475 381.91559992665634Q434.6933638795168 383.7482629840115 436.36363907103043 385.8361069734035Q438.03391426254393 387.9239509627955 439.3562154558256 390.59175161590747Q440.701714915656 393.25955226901954 441.60644731105924 396.60010265204676Q442.53437797301126 399.940653035074 442.53437797301126 404.46431501208997L442.53437797301126 404.46431501208997L442.53437797301126 414.97312975869636Q442.53437797301126 420.819092928994 439.0314397241424 424.73959997574116Q435.5285014752735 428.6833052890372 428.4994267109871 428.6833052890372L428.4994267109871 428.6833052890372L399.1072229936575 428.6833052890372L399.1072229936575 418.3136801417236L431.0048394982575 418.3136801417236L431.0048394982575 405.4618404736883Q431.0048394982575 398.61835184179233 429.0097885750607 394.92982746053315Q426.99153938531515 391.26450134582274 424.3237387322032 387.76156309695386L424.3237387322032 387.76156309695386Q421.4935502132496 384.0730387156947 418.9881374259792 380.1525316689475Q416.48272463870876 376.23202462220024 416.48272463870876 370.87322504942745L416.48272463870876 370.87322504942745Q416.48272463870876 363.8673485516898 421.4007571470544 359.52927270706425Q426.34198792194877 355.1911968624387 434.85575174535836 354.0080852684498L434.85575174535836 354.0080852684498L434.85575174535836 353.33533553853465Q426.34198792194877 352.17542221109466 421.4007571470544 347.8373463664691Q416.48272463870876 343.4992705218434 416.48272463870876 336.470195757557L416.48272463870876 336.470195757557Q416.48272463870876 331.134594451333 418.9881374259792 327.2140874045858Q421.4935502132496 323.2703820912898 424.3237387322032 319.60505597657937L424.3237387322032 319.60505597657937Q426.99153938531515 316.1021177277106 429.0097885750607 312.4135933464514Q431.0048394982575 308.74826723174095 431.0048394982575 301.9047785998449L431.0048394982575 301.9047785998449L431.0048394982575 289.0297406652609L399.1072229936575 289.0297406652609L399.1072229936575 278.6833137844961Z " fill="#0389ff" transform="matrix(0.7585206723426499,0,0,0.7585206723426499,0,31.723872861030628)"/><path d="M628.1456024577764 428.6833092616396L628.1456024577764 428.6833092616396Q616.952399524053 428.6833092616396 608.2804378452028 424.80447656183446Q599.6084761663527 420.92564386202935 593.6239914295105 413.94374500237996Q587.6395066926682 406.9618461427307 584.536440532824 396.9877049146603Q581.4610803208358 387.0135636865898 581.4610803208358 374.8229466300593L581.4610803208358 374.8229466300593Q581.4610803208358 362.66003552138454 584.6472643242471 352.68589429331416Q587.8334483276584 342.71175306524367 593.8179330645007 335.6467363620271Q599.802417801343 328.5540137109549 608.3912616366258 324.75829885471694Q616.952399524053 320.9625839984791 627.9239548749305 320.9625839984791L627.9239548749305 320.9625839984791Q642.885166717036 320.9625839984791 652.2774830401357 327.55659958814783Q661.6420934153796 334.1506151778166 666.047339124444 344.7065813108578L666.047339124444 344.7065813108578L653.2748971629427 351.4945385355169Q650.4765964295119 343.51522555306053 643.9934046312661 339.1376857918518Q637.5102128330203 334.73244008278743 627.9239548749305 334.73244008278743L627.9239548749305 334.73244008278743Q620.9420560152811 334.73244008278743 615.4562783398424 337.03203375481473Q609.9705006644036 339.33162742684203 606.2024917560215 343.51522555306053Q602.4067768997836 347.6988236792789 600.4950664977367 353.4893667811309Q598.6110620435456 359.2799098829829 598.6110620435456 366.067867107642L598.6110620435456 366.067867107642L598.6110620435456 383.6057321003325Q598.6110620435456 390.39368932499144 600.4950664977367 396.18423242684344Q602.4067768997836 401.97477552869543 606.2024917560215 406.15837365491393Q609.9705006644036 410.3419717811323 615.5671021312654 412.6415654531597Q621.1637035981272 414.941159125187 628.3395440927667 414.941159125187L628.3395440927667 414.941159125187Q638.7015685908176 414.941159125187 645.4895258154767 410.1480301461421Q652.2774830401357 405.3549011670972 656.2671395313638 396.9877049146603L656.2671395313638 396.9877049146603L667.6265781522219 404.74537031427064Q663.0550967560229 415.13510076017735 653.35801500651 421.9230579848363Q643.6886392048528 428.6833092616396 628.1456024577764 428.6833092616396ZM744.2335239733738 428.6833092616396L744.2335239733738 428.6833092616396Q733.4559102574866 428.6833092616396 724.7839485786365 424.9153003532574Q716.1119868997864 421.11958549701956 710.0166783715212 414.0268628459472Q703.9490757911117 406.9618461427307 700.7351858398445 397.07082275822756Q697.5490018364331 387.20750532158013 697.5490018364331 374.8229466300593L697.5490018364331 374.8229466300593Q697.5490018364331 362.66003552138454 700.7351858398445 352.68589429331416Q703.9490757911117 342.71175306524367 710.0166783715212 335.6467363620271Q716.1119868997864 328.5540137109549 724.7839485786365 324.75829885471694Q733.4559102574866 320.9625839984791 744.2335239733738 320.9625839984791L744.2335239733738 320.9625839984791Q755.011137689261 320.9625839984791 763.6830993681111 324.75829885471694Q772.3550610469613 328.5540137109549 778.4503695752265 335.6467363620271Q784.517972155636 342.71175306524367 787.7318621069032 352.68589429331416Q790.9180461103147 362.66003552138454 790.9180461103147 374.8229466300593L790.9180461103147 374.8229466300593Q790.9180461103147 387.20750532158013 787.7318621069032 397.07082275822756Q784.517972155636 406.9618461427307 778.4503695752265 414.0268628459472Q772.3550610469613 421.11958549701956 763.6830993681111 424.9153003532574Q755.011137689261 428.6833092616396 744.2335239733738 428.6833092616396ZM744.2335239733738 414.941159125187L744.2335239733738 414.941159125187Q757.5877908398459 414.941159125187 765.7887514051482 406.9618461427307Q773.9620060225949 398.98253316027433 773.9620060225949 382.2204347075449L773.9620060225949 382.2204347075449L773.9620060225949 367.4531645004296Q773.9620060225949 350.6910660477 765.7887514051482 342.71175306524367Q757.5877908398459 334.73244008278743 744.2335239733738 334.73244008278743L744.2335239733738 334.73244008278743Q730.8792571069018 334.73244008278743 722.6782965415995 342.71175306524367Q714.5050419241528 350.6910660477 714.5050419241528 367.4531645004296L714.5050419241528 367.4531645004296L714.5050419241528 382.2204347075449Q714.5050419241528 398.98253316027433 722.6782965415995 406.9618461427307Q730.8792571069018 414.941159125187 744.2335239733738 414.941159125187ZM888.858571780395 426.300597746045L888.858571780395 409.53849929331557L888.0550992925782 409.53849929331557Q878.0809580645077 428.6833092616396 856.3317889977432 428.6833092616396L856.3317889977432 428.6833092616396Q837.3809206644092 428.6833092616396 826.7141307399451 414.5255699073508Q816.0473408154809 400.36783055306194 816.0473408154809 374.8229466300593L816.0473408154809 374.8229466300593Q816.0473408154809 349.3057686549125 826.7141307399451 335.14802930062365Q837.3809206644092 320.9625839984791 856.3317889977432 320.9625839984791L856.3317889977432 320.9625839984791Q878.0809580645077 320.9625839984791 888.0550992925782 340.1350999146589L888.0550992925782 340.1350999146589L888.858571780395 340.1350999146589L888.858571780395 278.6833075706027L904.8171977453077 278.6833075706027L904.8171977453077 426.300597746045L888.858571780395 426.300597746045ZM862.5379213174314 414.5255699073508L862.5379213174314 414.5255699073508Q867.9128752014472 414.5255699073508 872.7060041804921 413.1402725145632Q877.499133159537 411.7272691739199 881.0732004329288 409.039792231912Q884.6749736541765 406.35231528990414 886.7529197433579 402.473482590099Q888.858571780395 398.5669439424381 888.858571780395 393.38593169341266L888.858571780395 393.38593169341266L888.858571780395 356.2876675145618Q888.858571780395 351.10665526553635 886.7529197433579 347.20011661787544Q884.6749736541765 343.3212839180702 881.0732004329288 340.6338069760624Q877.499133159537 337.91862408619875 872.7060041804921 336.53332669341125Q867.9128752014472 335.14802930062365 862.5379213174314 335.14802930062365L862.5379213174314 335.14802930062365Q848.5741235981327 335.14802930062365 840.8718700942339 343.6260493444835Q833.1973225381909 352.1040693883434 833.1973225381909 366.067867107642L833.1973225381909 366.067867107642L833.1973225381909 383.6057321003325Q833.1973225381909 397.56952981963104 840.8718700942339 406.0475498634909Q848.5741235981327 414.5255699073508 862.5379213174314 414.5255699073508ZM985.4138000576878 428.6833092616396L985.4138000576878 428.6833092616396Q974.24830307182 428.6833092616396 965.354693810124 424.9153003532574Q956.4887904962836 421.11958549701956 950.199540333028 414.0268628459472Q943.9102901697726 406.9618461427307 940.5301645313709 397.07082275822756Q937.1223329451135 387.20750532158013 937.1223329451135 375.0445942129054L937.1223329451135 375.0445942129054Q937.1223329451135 362.66003552138454 940.6132823749381 352.68589429331416Q944.1042318047628 342.71175306524367 950.3103641244511 335.6467363620271Q956.4887904962836 328.5540137109549 965.1607521751337 324.75829885471694Q973.8327138539837 320.9625839984791 984.4163859348807 320.9625839984791L984.4163859348807 320.9625839984791Q994.7784104329317 320.9625839984791 1003.2564304767916 324.75829885471694Q1011.7344505206514 328.5540137109549 1017.7189352574937 335.2311471441909Q1023.703419994336 341.9082805774269 1026.8896039977476 351.10665526553635Q1030.1034939490146 360.27732400579 1030.1034939490146 371.24887935666743L1030.1034939490146 371.24887935666743L1030.1034939490146 378.81260312128745L953.884431397843 378.81260312128745L953.884431397843 383.6057321003325Q953.884431397843 390.39368932499144 956.0732012784473 396.18423242684344Q958.2896771069074 401.97477552869543 962.3624514417029 406.15837365491393Q966.462931724354 410.3419717811323 972.3365926697732 412.6415654531597Q978.2379595630482 414.941159125187 985.4138000576878 414.941159125187L985.4138000576878 414.941159125187Q995.7758245557388 414.941159125187 1003.3672542682145 410.1480301461421Q1010.9309780328347 405.3549011670972 1014.9206345240627 396.9877049146603L1014.9206345240627 396.9877049146603L1026.695662362757 404.96701789711665Q1022.1241809665581 415.32904239516756 1011.4296850942383 422.00617582840357Q1000.7628951697739 428.6833092616396 985.4138000576878 428.6833092616396ZM984.4163859348807 334.1506151778166L984.4163859348807 334.1506151778166Q977.822370345212 334.1506151778166 972.253474826206 336.53332669341125Q966.6568733593443 338.9160382090058 962.556393076693 343.12734228308Q958.4836187418977 347.3109404092984 956.1840250698704 352.99065971972743Q953.884431397843 358.67037903015637 953.884431397843 365.45833625481544L953.884431397843 365.45833625481544L953.884431397843 366.84363364760304L1012.9258062784487 366.84363364760304L1012.9258062784487 364.6548637669987Q1012.9258062784487 357.8669065423396 1010.8478601892674 352.29801102333363Q1008.7422081522303 346.70140955647184 1005.0573170874154 342.6286352216765Q1001.3724260226005 338.5281549390253 996.080589982152 336.33938505842093Q990.7887539417036 334.1506151778166 984.4163859348807 334.1506151778166ZM1153.5611975942415 411.7272691739199L1153.5611975942415 426.300597746045L1053.0440187735762 426.300597746045L1053.0440187735762 411.3393859039394L1131.839734475333 301.6238323951647L1056.424144411978 301.6238323951647L1056.424144411978 287.05050382303955L1150.1810719558403 287.05050382303955L1150.1810719558403 302.0117156651452L1071.1914146190934 411.7272691739199L1153.5611975942415 411.7272691739199Z " fill="#0e0e0e" transform="matrix(0.7585206723426499,0,0,0.7585206723426499,0,31.723872861030628)"/></g></svg>